<svg xmlns="http://www.w3.org/2000/svg" viewBox="0 0 1200 360">
<rect width="1200" height="360" fill="white"/>
<g transform="translate(35 42)">
<path d="M75 5l60 0 42 42-57 0z" fill="#9d3b17"/><path d="M120 47h57v145l-57-43z" fill="#ff6d0a"/>
<path d="M55 72l48-37v112l-48-36z" fill="#cfd0d2"/><path d="M5 130l52 0 47 39-52 0z" fill="#111"/>
<path d="M5 130l47 39v83L5 216z" fill="#cfd0d2"/><path d="M52 169l68-20 0 58-68 45z" fill="#ff6d0a"/>
<path d="M120 207l58 43v76l-58-36z" fill="#cfd0d2"/>
</g>
<text x="220" y="190" font-family="Arial,Helvetica,sans-serif" font-size="112" font-style="italic" fill="#050505">Cuisine Pour Tous</text>
<path d="M210 215h930l-10 42H210z" fill="#050505"/>
<text x="235" y="320" font-family="Georgia,serif" font-size="62" font-style="italic" fill="#e36f3e">La fin des cuisines chères!</text>
</svg>